<svg xmlns="http://www.w3.org/2000/svg" viewBox="0 0 146.15 41.98"><defs><style>.cls-1{fill:#fe7915;}.cls-2{fill:#353535;}</style></defs><title>Asset 1</title><g id="Layer_2" data-name="Layer 2"><g id="Layer_1-2" data-name="Layer 1"><path class="cls-1" d="M22.49,13a3.26,3.26,0,0,1,0-1.8,2.32,2.32,0,1,0-2.4.11,2.71,2.71,0,0,1,.11,1.5,2.32,2.32,0,1,0,2.33.19Z"/><path class="cls-1" d="M22.7,4.58a1.54,1.54,0,1,1-1.54-1.53A1.54,1.54,0,0,1,22.7,4.58Z"/><path class="cls-1" d="M22.09.93a.93.93,0,0,1-1.86,0,.93.93,0,1,1,1.86,0Z"/><path class="cls-1" d="M27.71,16.39A3.15,3.15,0,0,1,29,15.09a2.32,2.32,0,1,0-1.78-1.63,2.62,2.62,0,0,1-1,1.14,2.32,2.32,0,1,0,.87,3.83A2.29,2.29,0,0,0,27.71,16.39Z"/><path class="cls-1" d="M33.8,10.6a1.54,1.54,0,1,1,0-2.18A1.55,1.55,0,0,1,33.8,10.6Z"/><path class="cls-1" d="M36,7.58a.93.93,0,0,1-1.31,0,.93.93,0,1,1,1.31,0Z"/><path class="cls-1" d="M29,22.49a3.17,3.17,0,0,1,1.8,0,2.32,2.32,0,1,0-.11-2.4,2.71,2.71,0,0,1-1.5.11A2.32,2.32,0,1,0,29,22.49Z"/><path class="cls-1" d="M37.4,22.7a1.54,1.54,0,1,1,1.54-1.54A1.54,1.54,0,0,1,37.4,22.7Z"/><path class="cls-1" d="M41.05,22.09a.93.93,0,1,1,.93-.93A.93.93,0,0,1,41.05,22.09Z"/><path class="cls-1" d="M25.59,27.71A3.15,3.15,0,0,1,26.89,29a2.32,2.32,0,1,0,1.63-1.78,2.62,2.62,0,0,1-1.14-1,2.32,2.32,0,0,0-3.83-2.41,2.33,2.33,0,0,0,0,3.28A2.29,2.29,0,0,0,25.59,27.71Z"/><path class="cls-1" d="M31.38,33.8a1.54,1.54,0,1,1,2.18,0A1.55,1.55,0,0,1,31.38,33.8Z"/><path class="cls-1" d="M34.4,36a.93.93,0,0,1,0-1.31.93.93,0,1,1,0,1.31Z"/><path class="cls-1" d="M19.49,29a3.17,3.17,0,0,1,0,1.8,2.32,2.32,0,1,0,2.4-.11,2.71,2.71,0,0,1-.11-1.5A2.32,2.32,0,1,0,19.49,29Z"/><path class="cls-1" d="M19.28,37.4a1.54,1.54,0,1,1,1.54,1.53A1.54,1.54,0,0,1,19.28,37.4Z"/><path class="cls-1" d="M19.89,41.05a.93.93,0,1,1,.93.93A.93.93,0,0,1,19.89,41.05Z"/><path class="cls-1" d="M14.27,25.59A3.15,3.15,0,0,1,13,26.89a2.32,2.32,0,1,0,1.78,1.63,2.62,2.62,0,0,1,1-1.14,2.32,2.32,0,1,0-.87-3.83A2.29,2.29,0,0,0,14.27,25.59Z"/><path class="cls-1" d="M8.18,31.38a1.54,1.54,0,1,1,0,2.18A1.55,1.55,0,0,1,8.18,31.38Z"/><path class="cls-1" d="M6,34.4a.93.93,0,0,1,1.31,0A.93.93,0,1,1,6,35.71.93.93,0,0,1,6,34.4Z"/><path class="cls-1" d="M13,19.49a3.17,3.17,0,0,1-1.8,0,2.32,2.32,0,1,0,.11,2.4,2.71,2.71,0,0,1,1.5-.11A2.32,2.32,0,1,0,13,19.49Z"/><path class="cls-1" d="M4.59,19.28a1.54,1.54,0,1,1-1.54,1.54A1.54,1.54,0,0,1,4.59,19.28Z"/><path class="cls-1" d="M.93,19.89a.93.93,0,0,1,0,1.86.93.93,0,0,1,0-1.86Z"/><path class="cls-1" d="M16.39,14.27A3.15,3.15,0,0,1,15.09,13a2.32,2.32,0,1,0-1.63,1.78,2.56,2.56,0,0,1,1.14,1,2.34,2.34,0,0,0,.55,2.41,2.32,2.32,0,1,0,1.24-3.92Z"/><path class="cls-1" d="M10.6,8.18a1.54,1.54,0,1,1-2.18,0A1.55,1.55,0,0,1,10.6,8.18Z"/><path class="cls-1" d="M7.58,6A.93.93,0,1,1,6.27,6,.93.93,0,0,1,7.58,6Z"/><path class="cls-2" d="M63.82,15.91a5.93,5.93,0,0,1-1.17,3.63A6.1,6.1,0,0,1,60,21.59a9.42,9.42,0,0,1-3.62.62A11.81,11.81,0,0,1,51.21,21l-.15-.28a18.3,18.3,0,0,0,.35-4.07l.12-.13h.8l.11.13V17a14.87,14.87,0,0,0,.15,1.84,3.61,3.61,0,0,0,1.61,1.37,5.63,5.63,0,0,0,2.52.6,3.54,3.54,0,0,0,3.41-1.72,3.7,3.7,0,0,0,.49-1.83,2.35,2.35,0,0,0-1.33-2.28,7.35,7.35,0,0,0-2.14-.56,11.22,11.22,0,0,1-4.37-1.29A4.22,4.22,0,0,1,51.2,9.47a5.15,5.15,0,0,1,1.72-4.08A7.43,7.43,0,0,1,58,3.79a10.27,10.27,0,0,1,4.71.94l.09.3a22.43,22.43,0,0,0-.37,3.56l-.13.13h-.79l-.12-.13a15.42,15.42,0,0,0-.13-1.94,2.93,2.93,0,0,0-1.34-1,5.54,5.54,0,0,0-2.13-.42,3.79,3.79,0,0,0-2.65.88,2.83,2.83,0,0,0-.91,2.16,2.35,2.35,0,0,0,1,2.11,10.27,10.27,0,0,0,3.18.83l1.45.25a6.76,6.76,0,0,1,1.36.36,3.82,3.82,0,0,1,1.9,1.45A4.79,4.79,0,0,1,63.82,15.91Z"/><path class="cls-2" d="M79.61,21.6l-.12.13-2.36-.06-1.22,0-1.21,0-.1-.1a19,19,0,0,0,.1-1.95c-.43.33-1.18,1-2.26,2.07a4.76,4.76,0,0,1-1.74.31,3.71,3.71,0,0,1-2.65-.91,3.44,3.44,0,0,1-1-2.64c0-.14,0-.44,0-.89s0-.9,0-1.33V14.7a11.46,11.46,0,0,0-.19-2.87.66.66,0,0,0-.54-.31c-.1,0-.46,0-1.09-.06l-.13-.13v-.69l.13-.14a21.33,21.33,0,0,0,4.82-1l.28.16c-.11,1.38-.17,2.65-.17,3.82v2.43a16.46,16.46,0,0,0,.11,2.33,1.86,1.86,0,0,0,.6,1.14,1.89,1.89,0,0,0,1.25.38,2.54,2.54,0,0,0,1.71-.62,2,2,0,0,0,.73-1.42c0-.41,0-.66,0-.76V14.7a11.7,11.7,0,0,0-.19-2.87.62.62,0,0,0-.52-.31c-.1,0-.47,0-1.1-.06l-.14-.13v-.69l.14-.14a21.33,21.33,0,0,0,4.82-1l.26.16c-.1,1.24-.16,2.52-.16,3.82v3.92a14.31,14.31,0,0,0,.15,3,.36.36,0,0,0,.25.23,7.21,7.21,0,0,0,1.3.15l.13.12Z"/><path class="cls-2" d="M94.78,21.62l-.12.13c-.92-.05-1.69-.08-2.32-.08s-1.43,0-2.54.08l-.13-.12c.15-1.85.23-3.28.23-4.29V14.9c0-2-.73-3-2.2-3a2.2,2.2,0,0,0-1.79.78A2.08,2.08,0,0,0,85.36,14v2.33a28.33,28.33,0,0,0,.16,4c.07.29.55.45,1.45.46l.12.13v.76l-.12.12c-.71,0-1.76-.07-3.17-.07s-2.62,0-3.4.08l-.12-.12v-.76l.12-.13a4.57,4.57,0,0,0,1.49-.18q.24-.12.27-.6.09-1.62.09-3.48V14.7a11.28,11.28,0,0,0-.19-2.87.66.66,0,0,0-.54-.31c-.1,0-.46,0-1.08-.06l-.13-.13v-.69l.13-.14a21.85,21.85,0,0,0,4.72-1l.28.16,0,2.09,2.14-1.79a4.67,4.67,0,0,1,1.81-.34,3.63,3.63,0,0,1,3,1.2,4.4,4.4,0,0,1,.8,2.85c0,.14,0,.72,0,1.73s0,1.74,0,2.17q0,1.89.06,2.4a.88.88,0,0,0,.28.65,3.44,3.44,0,0,0,1.3.17l.11.12Z"/><path class="cls-2" d="M108.74,21.63l-.12.12c-.81-.05-1.55-.08-2.21-.08s-1.46,0-2.53.08l-.11-.08c0-.41,0-1.09,0-2.05-.3.25-.73.63-1.28,1.15a12.46,12.46,0,0,1-1.35,1.15,3.36,3.36,0,0,1-1.29.18,4.22,4.22,0,0,1-3.44-1.6,6.37,6.37,0,0,1-1.31-4.17,6.4,6.4,0,0,1,1-3.86,8.53,8.53,0,0,1,1.54-1.29,13.72,13.72,0,0,1,2.18-1.35,3.93,3.93,0,0,1,1.52-.25,5.37,5.37,0,0,1,2.42.55v-.7a23.91,23.91,0,0,0-.16-3.87.57.57,0,0,0-.51-.39A11.43,11.43,0,0,0,102,5.09L101.88,5V4.27l.12-.14a23.34,23.34,0,0,0,4.82-1l.28.15s0,.44,0,1.23c-.08,1.79-.11,4.47-.11,8v4a21,21,0,0,0,.16,3.85.45.45,0,0,0,.27.26,7.19,7.19,0,0,0,1.25.16l.12.13Zm-4.92-6.51V12.78a4.39,4.39,0,0,0-1.72-1.37,3.58,3.58,0,0,0-1.19-.2A2.14,2.14,0,0,0,98.69,13a7.91,7.91,0,0,0-.28,2.19A5.35,5.35,0,0,0,99.62,19a2.27,2.27,0,0,0,1.71.66A2.71,2.71,0,0,0,103,19.1a1.85,1.85,0,0,0,.81-1.07C103.81,17.91,103.82,16.94,103.82,15.12Z"/><path class="cls-2" d="M120.22,14.67c0,.15,0,.36,0,.64l-.14.17a17,17,0,0,1-4.36.45l-1.47,0-1.48,0a4.75,4.75,0,0,0,1.13,3,3.63,3.63,0,0,0,2.89,1.28,6.58,6.58,0,0,0,2.85-.82l.3.36-.55,1.24a7.24,7.24,0,0,1-3.95,1.15,5.8,5.8,0,0,1-4.36-1.58,6.19,6.19,0,0,1-1.55-4.51c0-2.32.55-3.9,1.66-4.76a7.23,7.23,0,0,1,4.35-1.77A4.57,4.57,0,0,1,119,10.87,5.34,5.34,0,0,1,120.22,14.67ZM117,14.35c0-2.24-.7-3.36-2.09-3.36s-2.21,1.11-2.21,3.34v.27a18.79,18.79,0,0,0,2.57.11A11.22,11.22,0,0,0,117,14.6C117,14.48,117,14.4,117,14.35Z"/><path class="cls-2" d="M135.58,21.6l-.12.13-2.36-.06-1.22,0-1.21,0-.1-.1a19,19,0,0,0,.1-1.95c-.43.33-1.19,1-2.27,2.07a4.74,4.74,0,0,1-1.73.31,3.69,3.69,0,0,1-2.65-.91,3.45,3.45,0,0,1-1-2.64c0-.14,0-.44,0-.89s0-.9,0-1.33V14.7a11.71,11.71,0,0,0-.18-2.87.7.7,0,0,0-.54-.31c-.1,0-.47,0-1.1-.06l-.12-.13v-.69l.12-.14a21.3,21.3,0,0,0,4.83-1l.27.16c-.11,1.38-.16,2.65-.16,3.82v2.43a16.46,16.46,0,0,0,.11,2.33,1.8,1.8,0,0,0,.59,1.14,1.89,1.89,0,0,0,1.25.38,2.54,2.54,0,0,0,1.71-.62,2,2,0,0,0,.74-1.42c0-.41,0-.66,0-.76V14.7a12,12,0,0,0-.18-2.87.64.64,0,0,0-.53-.31c-.1,0-.46,0-1.09-.06l-.14-.13v-.69l.14-.14a21.56,21.56,0,0,0,4.82-1l.26.16c-.11,1.24-.16,2.52-.16,3.82v3.92a14.31,14.31,0,0,0,.15,3,.36.36,0,0,0,.25.23,7.19,7.19,0,0,0,1.29.15l.14.12Z"/><path class="cls-2" d="M146.15,17.75A4,4,0,0,1,144.64,21a6.08,6.08,0,0,1-4,1.22,10.55,10.55,0,0,1-3.72-.74l-.13-.19c.07-.76.12-1.36.13-1.78l.07-1.57.12-.14h.74l.15.14a12.86,12.86,0,0,0,.11,1.64,3.35,3.35,0,0,0,2.78,1.36,2.73,2.73,0,0,0,1.75-.53,1.75,1.75,0,0,0,.67-1.44,1.48,1.48,0,0,0-1-1.51,13.87,13.87,0,0,0-1.68-.42,7.1,7.1,0,0,1-2.76-1,3,3,0,0,1-1.06-2.5,3.63,3.63,0,0,1,1.31-2.91,5.64,5.64,0,0,1,3.72-1.14,7.25,7.25,0,0,1,3.31.67l.11.2a20.08,20.08,0,0,0-.21,2.88l-.14.12h-.71l-.13-.12a9.17,9.17,0,0,0-.18-1.46,2.73,2.73,0,0,0-2.28-1,2.51,2.51,0,0,0-1.59.48,1.47,1.47,0,0,0-.63,1.24,1.38,1.38,0,0,0,1.06,1.39c.32.1.93.24,1.85.42a7.09,7.09,0,0,1,2.76.95A3,3,0,0,1,146.15,17.75Z"/><path class="cls-2" d="M71.74,27.33l.06.06c0,.39-.06,1.08-.06,2.06l-.06.06h-.31l-.05-.06-.07-.61c0-.32-.06-.52-.08-.59a.24.24,0,0,0-.1-.16,1.17,1.17,0,0,0-.43-.08,6.58,6.58,0,0,0-.8,0H68.59c0,1,0,1.57,0,1.72V34.8c0,.5,0,.82,0,1a.65.65,0,0,0,.09.29.6.6,0,0,0,.24.11,4.62,4.62,0,0,0,.88.08l0,0v.33l0,.05-1.88-.05-1.87.05,0-.05v-.33l0,0a6.45,6.45,0,0,0,.82-.07.36.36,0,0,0,.38-.36,5.35,5.35,0,0,0,0-.91V29.69c0-.07,0-.64,0-1.72h-1q-.6,0-1,0c-.29,0-.46.06-.5.13a2.32,2.32,0,0,0-.13.71l-.07.61-.06.06h-.3l0-.06c0-1.05,0-1.74-.06-2.06l.06-.06c.76,0,2,.05,3.8.05S71,27.36,71.74,27.33Z"/><path class="cls-2" d="M76.91,35.65l-.21.47a4.13,4.13,0,0,1-1.22.58,4.55,4.55,0,0,1-1,.13A3.79,3.79,0,0,1,73,36.52a2.52,2.52,0,0,1-1.15-1.05,3.33,3.33,0,0,1-.45-1.77,4.06,4.06,0,0,1,.18-1.25,3.11,3.11,0,0,1,.35-.82,2.91,2.91,0,0,1,.64-.6,4.36,4.36,0,0,1,.94-.53,3,3,0,0,1,1.08-.19,2.56,2.56,0,0,1,1.39.37,2,2,0,0,1,.85.95,3.14,3.14,0,0,1,.24,1.23c0,.13,0,.26,0,.39l-.07.07a7.63,7.63,0,0,1-1.2.14l-1,0H72.7a2.64,2.64,0,0,0,.68,2,2.28,2.28,0,0,0,1.64.65,2.46,2.46,0,0,0,.89-.16,4.88,4.88,0,0,0,.89-.44ZM72.7,33c.08,0,.38,0,.91,0s.92,0,1.17,0q.91,0,1.11,0a2.27,2.27,0,0,0,0-.24,2.32,2.32,0,0,0-.42-1.52,1.38,1.38,0,0,0-1.13-.49,1.44,1.44,0,0,0-1.22.56A2.64,2.64,0,0,0,72.7,33Z"/><path class="cls-2" d="M83.25,35.91l-.26.44a3.86,3.86,0,0,1-1.89.46A2.87,2.87,0,0,1,78.86,36a3.17,3.17,0,0,1-.79-2.22,4.08,4.08,0,0,1,.14-1.1,2.83,2.83,0,0,1,.34-.8,1.86,1.86,0,0,1,.46-.5,9.16,9.16,0,0,1,.84-.51,5.51,5.51,0,0,1,.9-.43,2.6,2.6,0,0,1,.83-.11,3.2,3.2,0,0,1,1.67.39c-.08.5-.14,1-.19,1.66l-.06.05h-.27l-.06-.06a4.09,4.09,0,0,0-.07-.74c0-.13-.2-.26-.52-.41a2.52,2.52,0,0,0-1-.21,2.05,2.05,0,0,0-1,.22,1.4,1.4,0,0,0-.63.75,3.23,3.23,0,0,0-.21,1.23,4,4,0,0,0,.17,1.18,2.89,2.89,0,0,0,.45.95,2,2,0,0,0,.74.61,2.28,2.28,0,0,0,1,.23,2.74,2.74,0,0,0,.7-.09,4.31,4.31,0,0,0,.78-.31Z"/><path class="cls-2" d="M85.76,26.88l.12.08c0,.5-.07,1.51-.07,3v1.62c.37-.3.71-.6,1-.9a1.22,1.22,0,0,1,.26-.18,2,2,0,0,1,.4-.12,2.25,2.25,0,0,1,.58-.07,2.55,2.55,0,0,1,1,.2,2,2,0,0,1,.71.49,1.47,1.47,0,0,1,.33.66,4.16,4.16,0,0,1,.09.94v1.15c0,.08,0,.62,0,1.64,0,.42.06.67.15.74a1.5,1.5,0,0,0,.81.12l0,0v.29l0,.05L90,36.62l-1,.05L89,36.6c.06-.57.08-1.31.08-2.23v-.86c0-.52,0-.89,0-1.12a1.49,1.49,0,0,0-.22-.62,1.2,1.2,0,0,0-.49-.43,1.55,1.55,0,0,0-.74-.16,2,2,0,0,0-.75.12,2.11,2.11,0,0,0-.61.41,1.44,1.44,0,0,0-.37.49,2.94,2.94,0,0,0-.06.74v1.17q0,.15,0,.93a7.3,7.3,0,0,0,0,.92.37.37,0,0,0,.09.19.28.28,0,0,0,.15.08l.71.05,0,0v.28l0,.06c-.55,0-1.07-.05-1.58-.05s-1,0-1.58.05l-.06-.06v-.28l.06,0a4.67,4.67,0,0,0,.72-.06.25.25,0,0,0,.14-.08.26.26,0,0,0,.09-.19c0-.09,0-.37.05-.85s0-.84,0-1.09v-3.4l0-1.39c0-.49,0-.83,0-1a.7.7,0,0,0-.06-.33.24.24,0,0,0-.14-.08,5.08,5.08,0,0,0-.79,0l-.06-.06v-.27l0-.06A8.51,8.51,0,0,0,85.76,26.88Z"/><path class="cls-2" d="M93.61,30.35l.12.09c0,.29,0,.68,0,1.16.35-.29.68-.59,1-.89a1.22,1.22,0,0,1,.26-.18,1.78,1.78,0,0,1,.4-.12,2.25,2.25,0,0,1,.58-.07,2.51,2.51,0,0,1,1,.2,2,2,0,0,1,.71.49,1.47,1.47,0,0,1,.33.66,4.16,4.16,0,0,1,.09.94v1.15c0,.08,0,.62,0,1.64,0,.42,0,.67.14.74a1.5,1.5,0,0,0,.81.12l0,0v.29l0,.05-1.13-.05-1,.05-.08-.07a22.13,22.13,0,0,0,.09-2.23v-.86c0-.52,0-.89,0-1.12a1.36,1.36,0,0,0-.22-.62,1.2,1.2,0,0,0-.49-.43,1.55,1.55,0,0,0-.74-.16,2,2,0,0,0-.58.07,1.91,1.91,0,0,0-.55.28,2.72,2.72,0,0,0-.45.4,1,1,0,0,0-.17.35,4.88,4.88,0,0,0,0,.69v1.14q0,.15,0,.93a7.3,7.3,0,0,0,0,.92.37.37,0,0,0,.09.19.28.28,0,0,0,.15.08l.7.05.06,0v.28l0,.06c-.55,0-1.07-.05-1.58-.05s-1,0-1.58.05l-.06-.06v-.28l.06,0a4.84,4.84,0,0,0,.72-.06.29.29,0,0,0,.14-.08.31.31,0,0,0,.09-.19c0-.09,0-.37,0-.85s0-.84,0-1.09V32.72c0-.18,0-.41,0-.72s0-.49-.05-.56a.18.18,0,0,0-.1-.15.83.83,0,0,0-.34-.05H91.5l-.06-.05V30.9l0,0A8.48,8.48,0,0,0,93.61,30.35Z"/><path class="cls-2" d="M99.64,33.61A3.76,3.76,0,0,1,100,32.1a3,3,0,0,1,1.12-1.26,3.41,3.41,0,0,1,1.9-.53,3,3,0,0,1,3.12,3.11,3.37,3.37,0,0,1-3.4,3.45,2.83,2.83,0,0,1-1.64-.49A3.08,3.08,0,0,1,100,35.17,3.57,3.57,0,0,1,99.64,33.61Zm1.24-.46a5.21,5.21,0,0,0,.24,1.65,2.63,2.63,0,0,0,.75,1.17,1.76,1.76,0,0,0,1.17.44,1.59,1.59,0,0,0,1.28-.62,2.84,2.84,0,0,0,.51-1.85,4.27,4.27,0,0,0-.55-2.29,1.75,1.75,0,0,0-1.58-.9,1.61,1.61,0,0,0-1.34.62A2.86,2.86,0,0,0,100.88,33.15Z"/><path class="cls-2" d="M109,26.88l.13.08c0,.5-.07,1.51-.07,3v4.12c0,.1,0,.41,0,.93a8.64,8.64,0,0,0,.06.92.37.37,0,0,0,.09.19.25.25,0,0,0,.14.08l.71.05.06,0v.28l0,.06c-.55,0-1.08-.05-1.59-.05s-1,0-1.57.05l-.06-.06v-.28l.06,0a4.62,4.62,0,0,0,.71-.06.28.28,0,0,0,.15-.08.31.31,0,0,0,.08-.19,7.79,7.79,0,0,0,.06-.85c0-.48,0-.84,0-1.09v-3.4l0-1.39c0-.49,0-.83,0-1a1.15,1.15,0,0,0-.06-.33.27.27,0,0,0-.14-.08,5.26,5.26,0,0,0-.8,0l-.06-.06v-.27l.06-.06A8.42,8.42,0,0,0,109,26.88Z"/><path class="cls-2" d="M110.91,33.61a3.76,3.76,0,0,1,.32-1.51,3,3,0,0,1,1.12-1.26,3.41,3.41,0,0,1,1.9-.53,3,3,0,0,1,3.11,3.11A3.35,3.35,0,0,1,114,36.87a2.84,2.84,0,0,1-1.65-.49,3.16,3.16,0,0,1-1.07-1.21A3.56,3.56,0,0,1,110.91,33.61Zm1.24-.46a5.21,5.21,0,0,0,.24,1.65,2.63,2.63,0,0,0,.75,1.17,1.76,1.76,0,0,0,1.17.44,1.59,1.59,0,0,0,1.28-.62,2.84,2.84,0,0,0,.51-1.85,4.36,4.36,0,0,0-.55-2.29,1.76,1.76,0,0,0-1.58-.9,1.61,1.61,0,0,0-1.34.62A2.86,2.86,0,0,0,112.15,33.15Z"/><path class="cls-2" d="M125.06,30.81l0,.12c-.18.27-.29.45-.33.53h-1.22a1.7,1.7,0,0,1,.18.76,2.12,2.12,0,0,1-.21.91,2.17,2.17,0,0,1-.6.75,3,3,0,0,1-2,.67h-.31a4.29,4.29,0,0,0-.5.46.56.56,0,0,0-.11.31.41.41,0,0,0,.27.41,3.19,3.19,0,0,0,1.1.12l1.47,0A2.73,2.73,0,0,1,124,36a1.27,1.27,0,0,1,.6.59,1.77,1.77,0,0,1,.23.9,2.57,2.57,0,0,1-.47,1.44A2.91,2.91,0,0,1,123,40a4.87,4.87,0,0,1-1.9.37,4.55,4.55,0,0,1-1.07-.12,2.82,2.82,0,0,1-.88-.38,1.84,1.84,0,0,1-.61-.66,1.65,1.65,0,0,1-.23-.85,1.89,1.89,0,0,1,.07-.51,2,2,0,0,1,.28-.58l1.19-.66a1.67,1.67,0,0,1-.72-.35.64.64,0,0,1-.15-.42,1.42,1.42,0,0,1,.16-.59l1.06-.76a2.11,2.11,0,0,1-1.26-.73,1.94,1.94,0,0,1-.32-1.07,2.23,2.23,0,0,1,.23-1,1.77,1.77,0,0,1,.69-.77,3.92,3.92,0,0,1,1-.46,3.82,3.82,0,0,1,1-.17,2.64,2.64,0,0,1,1.56.53Zm-3.42,5.93c-.7,0-1.11,0-1.22,0A1.37,1.37,0,0,0,120,37a1.51,1.51,0,0,0-.49.54,1.58,1.58,0,0,0-.18.76,1.51,1.51,0,0,0,.55,1.21,2.21,2.21,0,0,0,1.47.46,2.77,2.77,0,0,0,1.28-.29,1.92,1.92,0,0,0,.86-.77,1.87,1.87,0,0,0,.28-.93,1.3,1.3,0,0,0-.23-.77,1,1,0,0,0-.61-.39A8.47,8.47,0,0,0,121.64,36.74Zm-1.92-4.41a2.5,2.5,0,0,0,.16.86,1.28,1.28,0,0,0,.51.7,1.34,1.34,0,0,0,.79.24,1.45,1.45,0,0,0,1-.39,1.52,1.52,0,0,0,.42-1.19,2,2,0,0,0-.39-1.22,1.25,1.25,0,0,0-1.09-.55,1.4,1.4,0,0,0-1,.39A1.54,1.54,0,0,0,119.72,32.33Z"/><path class="cls-2" d="M125.6,40.19a8.38,8.38,0,0,0,.33-1h.16a.94.94,0,0,0,.7.34,1,1,0,0,0,.81-.46,10.81,10.81,0,0,0,1-2.05c-.16-.47-.33-.91-.5-1.33l-1-2.59L126.54,32a7.52,7.52,0,0,0-.39-.82A.58.58,0,0,0,126,31a1.86,1.86,0,0,0-.53-.12l-.06-.05v-.27l.06-.05c.51,0,1,.05,1.56.05s1.1,0,1.43-.05l.06.05v.27l0,.05-.4,0a.78.78,0,0,0-.42.1.29.29,0,0,0-.08.19,4.4,4.4,0,0,0,.2.73c.14.41.27.77.4,1.09l.41,1c.27.68.49,1.17.63,1.49l.35-.77c.12-.28.3-.7.53-1.27l.54-1.39c.14-.36.22-.59.24-.67a1.06,1.06,0,0,0,0-.2.19.19,0,0,0-.1-.19,1.39,1.39,0,0,0-.47-.09l-.27,0-.05-.06v-.29l.05-.05c.37,0,.81.05,1.31.05a10.31,10.31,0,0,0,1.1-.05l.06.05v.29l-.06.06a1,1,0,0,0-.38.06.76.76,0,0,0-.28.21,4.77,4.77,0,0,0-.47.85c-.23.47-.46,1-.69,1.45L130,34.88l-1.52,3.55a9.92,9.92,0,0,1-.49,1,1.78,1.78,0,0,1-1.61,1A1.52,1.52,0,0,1,125.6,40.19Z"/></g></g></svg>