<svg id="Layer_1" data-name="Layer 1" xmlns="http://www.w3.org/2000/svg" xmlns:xlink="http://www.w3.org/1999/xlink" viewBox="0 0 57 57"><defs><style>.cls-1{fill:none;}.cls-2{fill:#2d9297;}.cls-3{clip-path:url(#clip-path);}.cls-4,.cls-5{fill:#fff;}.cls-4{opacity:0;}.cls-5{fill-rule:evenodd;}</style><clipPath id="clip-path"><rect class="cls-1" x="13.66" y="13.39" width="30" height="30"/></clipPath></defs><title>Initiated</title><circle class="cls-2" cx="28.66" cy="28.39" r="28"/><g class="cls-3"><rect class="cls-4" x="13.66" y="13.39" width="30" height="30"/><path class="cls-5" d="M32.79,20.06a5,5,0,0,0-1.75.31A4.1,4.1,0,0,0,28.28,25a4.51,4.51,0,0,0,4.51,3.35h0a4.82,4.82,0,0,0,3.23-1.22,3.87,3.87,0,0,0,.58-5.26A4.75,4.75,0,0,0,32.79,20.06Zm0,1.67a3,3,0,0,1,1.05.19,2.42,2.42,0,0,1,0,4.62,3.19,3.19,0,0,1-1.05.19,2.93,2.93,0,0,1-2-.74,2.33,2.33,0,0,1,0-3.53A3,3,0,0,1,32.8,21.73Z"/><path class="cls-5" d="M41.31,13.39a26.28,26.28,0,0,0-5.64.54l-.11,0a15.54,15.54,0,0,0-8.2,4.61A22.67,22.67,0,0,0,24.7,22H24a9,9,0,0,0-4.77,1.38,9.12,9.12,0,0,0-3.33,3.69l-.21.42a.88.88,0,0,0,.78,1.27h.24l4.12.39c-.06.13-.13.26-.19.4-.31.61-.59,1.19-.88,1.74a1,1,0,0,0-.09.48A5.88,5.88,0,0,0,18,32.94c-1.8,1.81-3.94,8.54-4.18,9.3a.89.89,0,0,0,.83,1.15,1.17,1.17,0,0,0,.26,0c.76-.24,7.46-2.38,9.26-4.2a6.37,6.37,0,0,0,1.17-1.62h.05a.91.91,0,0,0,.4-.1l1.73-.88.38-.19.32,4.07v.25a.88.88,0,0,0,.87.87,1,1,0,0,0,.4-.09l.41-.21a9.14,9.14,0,0,0,5-8.16v-.6a24.1,24.1,0,0,0,3.53-2.75A15.77,15.77,0,0,0,43,21.47a.3.3,0,0,0,0-.1,28.53,28.53,0,0,0,.51-7.11.87.87,0,0,0-.84-.85ZM20.74,33.19l1,1L19.88,36a.88.88,0,0,0,0,1.25.88.88,0,0,0,1.23,0L23,35.42l1,1a4.53,4.53,0,0,1-1,1.5c-1,1-4.51,2.38-6.91,3.21.84-2.41,2.21-5.93,3.21-6.94A4.23,4.23,0,0,1,20.74,33.19Zm12.43.38h0a7.33,7.33,0,0,1-3.27,5.67l-.29-3.74C30.78,34.9,32,34.25,33.17,33.57ZM22.38,29.86l4.85,4.89-.47.23-1.18.59-4-4.05.59-1.19ZM35,15.88A7.42,7.42,0,0,0,41.11,22a13.85,13.85,0,0,1-3.87,6.45,36.64,36.64,0,0,1-8.37,5.44l-5.66-5.69a36.4,36.4,0,0,1,5.4-8.44A13.83,13.83,0,0,1,35,15.88Zm-11.4,7.88h0c-.71,1.22-1.37,2.47-2,3.69l-3.79-.35A7.39,7.39,0,0,1,23.62,23.76Zm17.64-8.62h.58a27.25,27.25,0,0,1-.35,5.15,5.63,5.63,0,0,1-4.76-4.8A26.08,26.08,0,0,1,41.26,15.14Z"/><path class="cls-5" d="M27.82,28.39a.83.83,0,0,0-.83.83.84.84,0,0,0,.83.84.85.85,0,0,0,.84-.84A.84.84,0,0,0,27.82,28.39Z"/></g></svg>