<svg id="Layer_1" data-name="Layer 1" xmlns="http://www.w3.org/2000/svg" xmlns:xlink="http://www.w3.org/1999/xlink" viewBox="0 0 57 57"><defs><style>.cls-1{fill:none;}.cls-2{fill:#765da8;}.cls-3{clip-path:url(#clip-path);}.cls-4,.cls-6{fill:#fff;}.cls-4{opacity:0;}.cls-5{fill:#feffff;}.cls-5,.cls-6{fill-rule:evenodd;}</style><clipPath id="clip-path"><rect class="cls-1" x="13.5" y="14.04" width="30" height="28.93"/></clipPath></defs><title>Pending Signature</title><circle class="cls-2" cx="28.5" cy="28.5" r="28"/><g class="cls-3"><rect class="cls-4" x="13.5" y="14.04" width="30" height="28.93"/><path class="cls-5" d="M39.2,14a2.17,2.17,0,0,0-1.92,1.1L36,17.29,32,24H16.39a2.83,2.83,0,0,0-2.89,2.72V40.1A3,3,0,0,0,16.39,43H40.24a2.86,2.86,0,0,0,2.89-2.86V26.94a2.84,2.84,0,0,0-2.89-2.78h-.81l3.48-5.73A2.34,2.34,0,0,0,42,15.29l-1.63-.93A2.37,2.37,0,0,0,39.2,14Zm1,11.9a.93.93,0,0,1,1,1V40.1a1,1,0,0,1-1,.93H16.31a.92.92,0,0,1-1-.93V26.94a1,1,0,0,1,1-1H30.83l-.74,1.15a1.06,1.06,0,0,0-.07.5l-.3,4H26.54a.92.92,0,0,0-.89,1,1,1,0,0,0,.89.93h11.7a1,1,0,1,0,0-1.93H33.8l1.55-1c.08-.07.3-.14.3-.36l2.59-4.29Zm-8.3,3.22,1.19.72-1.26.78Zm5.26-10,2.22,1.28-4.89,8.09L32.24,27.3ZM39.22,16a.54.54,0,0,1,.21.05l1.7.93c.07.15.15.36.07.43l-.81,1.36-2.22-1.29L39,16.07A.26.26,0,0,1,39.22,16Z"/><path class="cls-6" d="M27.2,37.61a1.1,1.1,0,0,0,0,2.14h11a1.08,1.08,0,0,0,0-2.14Z"/><path class="cls-6" d="M21,26.9a1,1,0,0,0-1.06,1v.67a3,3,0,0,0-2.11,2.85c0,1.57,1.46,2.47,2.52,3.22.81.6,1.79,1.12,1.79,1.72s-.57.9-1.14.9a1,1,0,0,1-1.06-.9,1,1,0,0,0-1-1,1.07,1.07,0,0,0-1.14,1A3,3,0,0,0,19.9,39.1v.67a1.11,1.11,0,0,0,1.06,1,1.12,1.12,0,0,0,1.14-1V39.1a3,3,0,0,0,2.11-2.77c0-1.57-1.46-2.55-2.52-3.3-.81-.52-1.79-1.12-1.79-1.64A1,1,0,0,1,21,30.34a1.12,1.12,0,0,1,1.14,1.05,1,1,0,0,0,1,.9,1.06,1.06,0,0,0,1.14-.9,3,3,0,0,0-2.11-2.85v-.67A1.11,1.11,0,0,0,21,26.9Z"/></g></svg>