<svg id="Layer_1" data-name="Layer 1" xmlns="http://www.w3.org/2000/svg" xmlns:xlink="http://www.w3.org/1999/xlink" viewBox="0 0 57 57"><defs><style>.cls-1{fill:none;}.cls-2{fill:#f89938;}.cls-3{clip-path:url(#clip-path);}.cls-4,.cls-5{fill:#fff;}.cls-4{opacity:0;}.cls-5{fill-rule:evenodd;}</style><clipPath id="clip-path"><rect class="cls-1" x="13.5" y="9.55" width="30" height="37.89"/></clipPath></defs><title>Pending for review</title><circle class="cls-2" cx="28.5" cy="28.5" r="28"/><g class="cls-3"><rect class="cls-4" x="13.5" y="9.55" width="30" height="37.89"/><path class="cls-5" d="M21.35,36.39a3.16,3.16,0,1,0,3.2,3.16A3.16,3.16,0,0,0,21.35,36.39Zm0,2.08a1.08,1.08,0,0,1,1.06,1.08,1.16,1.16,0,0,1-1.06,1.09,1.09,1.09,0,0,1,0-2.17Z"/><path class="cls-5" d="M19.29,19a1.06,1.06,0,0,0-.76.3,1.24,1.24,0,0,0,0,1.4l1.36,1.4-1.36,1.41a1.4,1.4,0,0,0,0,1.5,1.06,1.06,0,0,0,.76.3A.87.87,0,0,0,20,25l1.36-1.4L22.71,25a1,1,0,0,0,1.45,0,1.11,1.11,0,0,0,0-1.5L22.8,22.13l1.36-1.4a1,1,0,0,0,0-1.4,1,1,0,0,0-1.45,0l-1.36,1.3L20,19.33A.87.87,0,0,0,19.29,19Z"/><path class="cls-5" d="M19.29,28.5a1.06,1.06,0,0,0-.76.3,1.42,1.42,0,0,0,0,1.51l1.36,1.4L18.53,33a1.4,1.4,0,0,0,0,1.5,1.06,1.06,0,0,0,.76.3.87.87,0,0,0,.7-.3l1.36-1.3,1.36,1.3a1,1,0,0,0,1.45,0,1.11,1.11,0,0,0,0-1.5l-1.36-1.3,1.36-1.4a1.12,1.12,0,0,0,0-1.51,1,1,0,0,0-1.45,0l-1.36,1.4L20,28.8A.87.87,0,0,0,19.29,28.5Z"/><path class="cls-5" d="M23.92,9.56a3.52,3.52,0,0,0-3.26,2.25H17a3.44,3.44,0,0,0-3.47,3.28V44.17A3.44,3.44,0,0,0,17,47.45H39.82a3.44,3.44,0,0,0,3.47-3.28V15.09a3.1,3.1,0,0,0-3.16-3.28H36.45a3.42,3.42,0,0,0-3.27-2.25ZM40.34,14a1.18,1.18,0,0,1,1.27,1.13V44.17h-.43A1.15,1.15,0,0,1,40,45.3H17.18A1.15,1.15,0,0,1,16,44.17V15.09A1.15,1.15,0,0,1,17.18,14h3.69a3.62,3.62,0,0,0,3.37,2.15h9.15A3.58,3.58,0,0,0,36.66,14Zm-7.05-2.15a1.13,1.13,0,1,1,0,2.25H24a1.13,1.13,0,1,1,0-2.25Z"/><path class="cls-5" d="M28.82,20.61c-.61,0-1.11.68-1.11,1.64s.5,1.51,1.11,1.51h8.74a1.36,1.36,0,0,0,1.2-1.51c0-1-.5-1.64-1.2-1.64Z"/><path class="cls-5" d="M28.82,30.08c-.61,0-1.11.72-1.11,1.58s.5,1.57,1.11,1.57h8.74c.7,0,1.2-.71,1.2-1.57s-.5-1.58-1.2-1.58Z"/><path class="cls-5" d="M28.82,39.55c-.61,0-1.11.35-1.11.76s.5.82,1.11.82h8.74c.7,0,1.2-.34,1.2-.82s-.5-.76-1.2-.76Z"/></g></svg>