<svg id="Layer_1" data-name="Layer 1" xmlns="http://www.w3.org/2000/svg" xmlns:xlink="http://www.w3.org/1999/xlink" viewBox="0 0 57 57"><defs><style>.cls-1{fill:none;}.cls-2{fill:#ee3f7a;}.cls-3{clip-path:url(#clip-path);}.cls-4,.cls-5{fill:#fff;}.cls-4{opacity:0;}.cls-5{fill-rule:evenodd;}</style><clipPath id="clip-path"><rect class="cls-1" x="13.5" y="12.25" width="30" height="32.5"/></clipPath></defs><title>Pending Approval</title><circle class="cls-2" cx="28.5" cy="28.5" r="28"/><g class="cls-3"><rect class="cls-4" x="13.5" y="12.25" width="30" height="32.5"/><path class="cls-5" d="M28.59,23.5a1,1,0,0,0-1.07,1v1h-1a2.84,2.84,0,0,0-2.86,2.94v1.95a2.89,2.89,0,0,0,2.86,2.93h1v3.91h-1a1,1,0,0,1-1-1.07,1,1,0,0,0-1-1,1,1,0,0,0-1.07,1A2.91,2.91,0,0,0,26.45,39h1v1a1,1,0,0,0,1,1,1,1,0,0,0,1.07-1v-.89h1a2.81,2.81,0,0,0,2.85-2.84v-2a2.81,2.81,0,0,0-2.85-2.84h-1v-4h1a1,1,0,0,1,1,1,1,1,0,0,0,1,1,1,1,0,0,0,1.07-1,2.92,2.92,0,0,0-2.95-2.94h-1v-1A1,1,0,0,0,28.59,23.5Zm1.88,9.77a1,1,0,0,1,1,1v2a1,1,0,0,1-1,1h-1v-4Zm-2.95-6v4h-1a1,1,0,0,1-1-1V28.3a1,1,0,0,1,1-1.07Z"/><path class="cls-5" d="M25.59,12.25a3.83,3.83,0,1,0,0,7.65v.35a13.08,13.08,0,0,0-4.41,1.91l-1.33-1.48.71-.7a.79.79,0,0,0,.26-1.3l-2.55-2.87a1,1,0,0,0-.76-.35,1,1,0,0,0-.57.18l-3,2.52a.87.87,0,0,0-.09,1.3l2.56,3a.91.91,0,0,0,.71.34.89.89,0,0,0,.62-.26l.79-.6,1.32,1.47a12.06,12.06,0,0,0-3.88,9,12.58,12.58,0,0,0,25.15,0,12.33,12.33,0,0,0-3.88-8.95l1.32-1.47.79.6a1.06,1.06,0,0,0,.66.26.87.87,0,0,0,.67-.34l2.55-3a.94.94,0,0,0-.17-1.3l-2.91-2.52a1.34,1.34,0,0,0-.64-.18.78.78,0,0,0-.69.35l-2.55,2.87a.85.85,0,0,0,.08,1.3l.8.7-1.33,1.48a12.14,12.14,0,0,0-4.41-1.91V19.9a3.83,3.83,0,1,0,0-7.65Zm2.91,9.47a10.73,10.73,0,0,1,10.77,10.6A10.73,10.73,0,1,1,28.5,21.72Zm11.21-4,1.41,1.22-1.24,1.39-1.41-1.22Zm-22.24,0,1.24,1.39-1.42,1.22-1.23-1.39Zm12.09.09v2h-2v-2Zm1.94-3.73a2,2,0,0,1,2,1.91,2,2,0,0,1-2,2v-1a1,1,0,0,0-1-1H26.65a1,1,0,0,0-1,1v1a2.1,2.1,0,0,1-2-2,2,2,0,0,1,2-1.91Z"/></g></svg>