<svg id="Layer_1" data-name="Layer 1" xmlns="http://www.w3.org/2000/svg" viewBox="0 0 57 57"><defs><style>.cls-1{fill:#A10B08;}.cls-2{fill:#fff;}</style></defs><title>Review</title><circle class="cls-1" cx="28.5" cy="28.5" r="28"/><g id="Rejected_Order" data-name="Rejected Order"><path id="Path_3530" data-name="Path 3530" class="cls-2" d="M32,15.28H30.28a2,2,0,0,0-1.5-1.78H26.35a1.81,1.81,0,0,0-1.41,1.78H23.26v3.47h8.8C32,17.62,32,16.5,32,15.28Zm-4.4,1.78a.85.85,0,1,1,0-1.69.93.93,0,0,1,.93.85A1.1,1.1,0,0,1,27.57,17.06Z"/><path id="Path_3531" data-name="Path 3531" class="cls-2" d="M28.69,32h-8.9V29.34H34.41a8.79,8.79,0,0,1,4.4,1.12c.09,0,.19.09.28.09V16.87H33.84v3.47H21.57V16.87H16.23V41.61H27.94c-.63-.56-1.4-3.36-1.31-4.31H19.79V34.68h7A6.4,6.4,0,0,1,28.69,32Zm-9-7.87H35.16v2.62H19.69Z"/><path id="Path_3532" data-name="Path 3532" class="cls-2" d="M40.68,36.27a6.29,6.29,0,0,0-6.84-5.15,6.22,6.22,0,0,0,.38,12.37,6.11,6.11,0,0,0,6.28-4.41A6,6,0,0,0,40.68,36.27Zm-9.74,1,1.47-1.46,1.46,1.46,2.93-2.93,1.47,1.47-4.4,4.39Z"/></g></svg>
