<svg id="Layer_1" data-name="Layer 1" xmlns="http://www.w3.org/2000/svg" viewBox="0 0 25 25"><defs><style>.cls-1{fill:#f47820;}</style></defs><title>Contract Selecteed</title><g id="_2zI2Gg.tif" data-name="2zI2Gg.tif"><path class="cls-1" d="M3.1,24.34,3.31.51h.13L15.28.6a.32.32,0,0,1,.26.12l5,5.11c.42.42.83.84,1.23,1.27a.34.34,0,0,1,.1.23c0,2.15,0,4.29,0,6.44l-.09,10.52v.21Zm7.31-4.68c.13-.19.25-.35.35-.53a4,4,0,0,0,.66-2.48,1.38,1.38,0,0,0-1.36-1.28,1.6,1.6,0,0,0-1.44.81,3.16,3.16,0,0,0-.11,3.44c.06.12.14.23.21.35l-.46.37a.52.52,0,0,0-.12.76.51.51,0,0,0,.77,0l.57-.47a.19.19,0,0,1,.17-.05,2.28,2.28,0,0,0,1.07,0,3.29,3.29,0,0,0,2.3-1.5l.17-.24c.05.12.08.21.11.3a.68.68,0,0,0,1.07.42,3.41,3.41,0,0,0,.64-.43,2.87,2.87,0,0,1,1.5-.76.47.47,0,0,0,.38-.44.46.46,0,0,0-.3-.5,1.2,1.2,0,0,0-.5,0,2.91,2.91,0,0,0-1.28.6l-.64.49c0-.11-.07-.21-.11-.3a3.32,3.32,0,0,0-.25-.54.61.61,0,0,0-1-.08,1.37,1.37,0,0,0-.18.24c-.27.37-.5.77-.8,1.11A2,2,0,0,1,10.41,19.66ZM15.17,7.33l5.44,0L15.22,1.89Zm-8.3,1.5v1l11.9.11v-1Zm0,3.1,11.9.1V11l-11.9-.1Zm11.9,1.16L6.83,13v1l11.91.11ZM6.91,4.69v1l6.72.06v-1Zm6.7,2.13L6.89,6.76v1l6.72.06Z"/></g></svg>