<svg id="Layer_1" data-name="Layer 1" xmlns="http://www.w3.org/2000/svg" viewBox="0 0 25 25"><defs><style>.cls-1,.cls-2{fill:#f47820;}.cls-2{opacity:0;}</style></defs><title>dashboard Selected</title><g id="Group_5554" data-name="Group 5554"><g id="Group_3309" data-name="Group 3309"><path id="Path_3" data-name="Path 3" class="cls-1" d="M17.32,2.5a7.74,7.74,0,0,1,5.35,2.81C20.84,6.72,19.15,8,17.32,9.4Z"/><path id="Path_4" data-name="Path 4" class="cls-1" d="M12.67,15.45A6.84,6.84,0,0,1,16.33,3.06V9.54a1.92,1.92,0,0,0,.29.84c1,1.69,2.11,3.24,3.23,4.93.14.14.14.28.29.56A6.83,6.83,0,0,1,12.67,15.45Z"/><path id="Path_5" data-name="Path 5" class="cls-1" d="M24.5,10.52c-.14.43-.14.85-.28,1.27A7.81,7.81,0,0,1,21.4,16c-1.26-1.83-2.39-3.66-3.66-5.63,1.83-1.41,3.8-2.82,5.63-4.23A8.77,8.77,0,0,1,24.5,9.4Z"/><path id="Path_6" data-name="Path 6" class="cls-1" d="M6,8.85V20.44H2V9Z"/><rect id="Rectangle_1" data-name="Rectangle 1" class="cls-1" x="0.5" y="21.33" width="18.55" height="1.43"/><path id="Path_7" data-name="Path 7" class="cls-1" d="M9.92,5.82H7.14V20.44h3.91v-4.8A8.38,8.38,0,0,1,9.92,5.82Z"/><path id="Path_8" data-name="Path 8" class="cls-1" d="M12.58,17.05v3.39H16.5V18.39A8.58,8.58,0,0,1,12.58,17.05Z"/></g><g id="Rectangle_1991" data-name="Rectangle 1991"><rect class="cls-2" x="0.5" y="0.5" width="24" height="24"/></g></g></svg>