<svg id="Layer_1" data-name="Layer 1" xmlns="http://www.w3.org/2000/svg" viewBox="0 0 25 25"><defs><style>.cls-1{fill:#fff;}</style></defs><title>clause white</title><g id="jhJ7OZ"><g id="eFfl6B.tif"><path class="cls-1" d="M1.92,18c0-.21,0-.36,0-.5,0-.41.2-.62.62-.62h9.19c.77,0,.63.58.67,1.06a1.43,1.43,0,0,0,.34.06c1.07,0,1.1.07,1.1,1.12v1.51a.66.66,0,0,1-.73.73l-11.94,0c-.48,0-.7-.26-.69-.75s0-1.19,0-1.79S.64,18,1.3,18Z"/><path class="cls-1" d="M10.07,10.83l-.67.88L5.66,9.07,8.07,5.66,11.81,8.3l-.55.85c.44.94,1.32,1.27,2.09,1.74a68.11,68.11,0,0,1,8.33,5.65,10.85,10.85,0,0,1,.86.8c.34.33.6.69,1.18.69s.75.45.77.95-.39,1.08-.88,1.06a1.55,1.55,0,0,1-1-.6,2.18,2.18,0,0,0-.66-.59c-1.89-1.2-3.8-2.37-5.62-3.66s-3.24-2.52-4.87-3.78c-.22-.18-.4-.56-.83-.3C10.52,11.16,10.29,11,10.07,10.83Z"/><path class="cls-1" d="M9.33,12.83a3.83,3.83,0,0,1-.74.79.92.92,0,0,1-.75-.11C6.75,12.78,5.67,12,4.6,11.24c-.55-.4-.64-.8-.33-1.23a.86.86,0,0,1,1.35-.17c1,.71,2,1.42,3.05,2.16A4.8,4.8,0,0,1,9.33,12.83Z"/><path class="cls-1" d="M9,3.66a3.14,3.14,0,0,1,.65.24c1.1.76,2.2,1.52,3.28,2.32a.82.82,0,0,1,0,1.41.78.78,0,0,1-1,0L8.71,5.3a.74.74,0,0,1-.34-1C8.5,4.06,8.81,3.87,9,3.66Z"/></g></g></svg>