<svg id="Layer_1" data-name="Layer 1" xmlns="http://www.w3.org/2000/svg" viewBox="0 0 25 25"><defs><style>.cls-1{fill:#fff;}</style></defs><title>commitment white</title><g id="_57qWyC.tif" data-name="57qWyC.tif"><path class="cls-1" d="M12.36,15.93a1.6,1.6,0,0,1,0,.21c-.14.41-.28.83-.43,1.24a.61.61,0,0,1-.79.4.62.62,0,0,1-.37-.8c.14-.42.28-.84.43-1.25a.61.61,0,0,1,.68-.42A.64.64,0,0,1,12.36,15.93Z"/><path class="cls-1" d="M22.09,7.05c.06.08.14.16.19.24l2.1,3.83c.11.22.09.32-.13.44l-2.78,1.51c-.19.1-.31.07-.41-.11L18.93,9a.25.25,0,0,1,.11-.4l2.85-1.55.06,0Z"/><path class="cls-1" d="M3,7.05l.42.24c.82.45,1.64.9,2.47,1.34.2.12.23.22.12.43L3.84,12.94c-.11.21-.22.24-.42.13L.64,11.55a1.12,1.12,0,0,1-.2-.18v-.12l0,0L2.61,7.29a1.5,1.5,0,0,1,.2-.24Z"/><path class="cls-1" d="M9.72,14.66a.86.86,0,0,0-1.52-.29.86.86,0,0,0-1.64,0l-.17-.08-1.83-1c-.15-.08-.16-.14-.08-.29l2-3.57c.09-.17.15-.19.32-.12l.85.33a.64.64,0,0,0,.41,0l2.2-.71a1,1,0,0,1,.54,0l.06.05L10.78,9l-.94.69-.9.64a.81.81,0,0,0-.16,1.27,1.26,1.26,0,0,0,1.45.31l2.49-1.05a.33.33,0,0,1,.37,0l4.83,3.8a.6.6,0,0,1,.21.71.61.61,0,0,1-.62.4.68.68,0,0,1-.36-.15l-3.68-2.9-.41-.32a.15.15,0,0,0-.22,0,.15.15,0,0,0,0,.22l.07.06.75.59,2.65,2.08a.61.61,0,1,1-.75,1q-1.7-1.35-3.41-2.68l-.07-.06a.16.16,0,0,0-.22,0,.16.16,0,0,0,0,.22L12,14l2.72,2.15a.62.62,0,1,1-.73,1l-1.22-1,0,0a.34.34,0,0,1-.18-.3.85.85,0,0,0-1-.72.15.15,0,0,1-.11,0,1.33,1.33,0,0,1-.33-.34.84.84,0,0,0-1.31-.16Z"/><path class="cls-1" d="M13.88,8.12l.23.08,2.73,1.33a.53.53,0,0,0,.46,0c.28-.12.56-.22.84-.33s.21,0,.28.1l2,3.62a.18.18,0,0,1-.07.28l-1.81,1.32a.22.22,0,0,1-.33,0l-5-4a.4.4,0,0,0-.45-.07l-2.63,1.12a1,1,0,0,1-1-.1.9.9,0,0,1-.19-.2.51.51,0,0,1,.13-.74L11.22,9a1.77,1.77,0,0,1,.31-.15l2.17-.7Z"/><path class="cls-1" d="M10,17.06a.6.6,0,0,1-.59-.77c.14-.45.3-.9.47-1.35a.6.6,0,0,1,.76-.35.61.61,0,0,1,.39.75c-.14.45-.3.9-.46,1.35A.58.58,0,0,1,10,17.06Z"/><path class="cls-1" d="M9.51,14.87a1.08,1.08,0,0,1,0,.19c-.09.27-.18.53-.28.79a.6.6,0,0,1-.62.41A.63.63,0,0,1,8,15.74a.67.67,0,0,1,0-.28c.08-.27.18-.54.27-.8a.62.62,0,0,1,1.2.21Z"/><path class="cls-1" d="M6.66,14.84a1.59,1.59,0,0,1,.23-.61.6.6,0,0,1,.76-.18.62.62,0,0,1,.32.72c0,.12-.08.24-.13.36a.61.61,0,0,1-.67.36A.63.63,0,0,1,6.66,14.84Z"/><path class="cls-1" d="M12.5,16.32c.23.19.46.35.65.54a.59.59,0,0,1-.22,1,.63.63,0,0,1-.62-.08c-.07-.06-.19-.11-.22-.19s.05-.18.08-.27Z"/></g></svg>