<svg id="Layer_1" data-name="Layer 1" xmlns="http://www.w3.org/2000/svg" viewBox="0 0 25 25"><defs><style>.cls-1{fill:#fff;}</style></defs><title>Contract Type white</title><path class="cls-1" d="M24.08,8.5,23.26,8c.1-.28.19-.52.26-.76.24-.81-.15-1.29-.91-1.57a.81.81,0,0,0-.72.11,3.34,3.34,0,0,0-1,1.11c-1.05,1.64-2.1,3.27-3.09,4.93a47.22,47.22,0,0,0-3.45,6.85,4.92,4.92,0,0,0-.45,1.69c0,.11.05.28.13.32a.42.42,0,0,0,.36,0,6.8,6.8,0,0,0,.91-.78,32,32,0,0,0,2.87-3.59C19.81,14,21.3,11.5,22.75,9l.12-.18.54.32-.13.23c-.77,1.34-1.55,2.67-2.33,4-.1.18-.21.35-.3.53a.63.63,0,0,0,.19.82c.22.16.31.14.44-.09l3-5.24C24.57,9,24.51,8.75,24.08,8.5Z"/><path class="cls-1" d="M15.4,20.43v1l-12.76-.1v-1l10.75.08h0a3.41,3.41,0,0,1,.17-1L2.64,19.29v-1l11.28.09c.13-.33.27-.67.42-1L2.67,17.29v-1c3.63,0,8.38.07,12.12.1.16-.35.33-.7.51-1.06-2.3,0-10.48,0-12.62-.05v-1c2.16,0,10.54,0,12.71,0v.8c.56-1.11,1.21-2.29,2-3.55.35-.59.71-1.18,1.07-1.76,0-.78,0-1.56,0-2.33a.39.39,0,0,0-.09-.23c-.39-.41-.79-.81-1.19-1.22L12.32,1.14A.33.33,0,0,0,12.06,1L.49.93h0c-.07,7.67.07,15.32,0,23l17.82.15v-.19l.06-7.09a31,31,0,0,1-2.76,3.44ZM12,2.27,17.2,7.56,12,7.52Zm-7.11,3c0-.85.62-1.44,1.61-1.6V2.38h1V3.65A2.65,2.65,0,0,1,9,4.46l-.72.82A2.18,2.18,0,0,0,7,4.79c-.44,0-.68.16-.68.45,0,.69,2.86.61,2.86,2.39,0,.82-.59,1.48-1.67,1.66v1.46h-1V9.32a3.69,3.69,0,0,1-1.87-.77l.63-1A3.31,3.31,0,0,0,7,8.18c.48,0,.73-.17.73-.45C7.76,6.91,4.9,7.06,4.9,5.26Zm-2.19,7,12.7.06v1L2.7,13.28Z"/><path class="cls-1" d="M15.39,15.35v-.19l-.09.18Z"/></svg>