<svg id="Layer_1" data-name="Layer 1" xmlns="http://www.w3.org/2000/svg" viewBox="0 0 25 25"><defs><style>.cls-1,.cls-2{fill:#fff;}.cls-2{opacity:0;}</style></defs><title>rules white</title><g id="Group_5551" data-name="Group 5551"><path id="Path_4711" data-name="Path 4711" class="cls-1" d="M22.73,5.78Q20.11,3.34,17.15.88a1.75,1.75,0,0,0-1-.38H1.5v24H23.28V6.84A1.07,1.07,0,0,0,22.73,5.78ZM4,3.19h10.5V6.26H4Zm16.36,6v2.3H11V9.14ZM9.65,19.2l-.54.58-.83.9-1,1.1-1,1.07,0,0L4.08,20.72l.9-.91L6.23,21l2.48-2.72.38.37.56.5Zm0-4.86-.54.59-.83.9-1,1.1L6.28,18l0,0L4.08,15.87,5,15l1.25,1.22c.92-1,1.56-1.73,2.48-2.72l.38.36.56.51Zm.11-4.85-.54.59-.83.9-1,1.1-1,1.06,0,0L4.19,11l.9-.91,1.25,1.22c.92-1,1.56-1.73,2.48-2.72L9.2,9l.55.51ZM11,14.21h9.35v2.3H11Zm9.43,7.47H11.07v-2.3h9.36ZM16.83,6.26V2.62C18.14,3.86,19.57,5,21,6.26Z"/><g id="Rectangle_1994" data-name="Rectangle 1994"><rect class="cls-2" x="0.5" y="0.5" width="24" height="24"/></g></g></svg>