<svg id="Layer_1" data-name="Layer 1" xmlns="http://www.w3.org/2000/svg" viewBox="0 0 25 25"><defs><style>.cls-1{fill:#fff;}</style></defs><g id="vgt47C.tif"><path class="cls-1" d="M.46,1.81c0-.11.07-.22.12-.33A1.48,1.48,0,0,1,2,.51q5.15,0,10.31,0a.36.36,0,0,1,.26.11c1.93,1.91,3.85,3.84,5.77,5.76a.39.39,0,0,1,.12.24c0,.93,0,1.87,0,2.81a.44.44,0,0,1,0,.1,8.13,8.13,0,0,0-2.65.2,8.52,8.52,0,0,0-2.61,1.12.92.92,0,0,1-.48.14H3.48v1.49h7.84a7.37,7.37,0,0,0-.68,1,.78.78,0,0,1-.85.48c-2,0-4.08,0-6.12,0h-.2v1.5H9.75L9.47,17h-6V18.5h6a8.55,8.55,0,0,0,.86,3H2A1.57,1.57,0,0,1,.55,20.45l-.09-.26Zm15,6.2h-12V9.49h12Zm-3-5.95v3.2A1.18,1.18,0,0,0,13.71,6.5h3.18Z"/><path class="cls-1" d="M22.5,24.5a6.38,6.38,0,0,1-.67-.49c-1-1-2.07-2.09-3.06-3.1-.52.17-1,.35-1.43.46a5.23,5.23,0,1,1,3.58-2.79c-.08.15,0,.22.08.31L24.15,22a.92.92,0,0,1,.26,1,.61.61,0,0,1-.07.14,5.15,5.15,0,0,1-1.47,1.32Zm-10-8.27a3.76,3.76,0,1,0,3.78-3.73A3.76,3.76,0,0,0,12.46,16.23Z"/></g></svg>