<svg id="Layer_1" data-name="Layer 1" xmlns="http://www.w3.org/2000/svg" viewBox="0 0 25 25"><defs><style>.cls-1{fill:#fff;}</style></defs><title>settings white</title><path id="maintain" class="cls-1" d="M21.66,13.68a7.72,7.72,0,0,0,0-2.35l2.61-2a.6.6,0,0,0,.15-.77L22,4.43a.63.63,0,0,0-.75-.27l-3.07,1.2A9.11,9.11,0,0,0,16,4.19L15.57,1A.59.59,0,0,0,15,.5H10a.6.6,0,0,0-.61.5L9,4.18A9.7,9.7,0,0,0,6.88,5.36L3.8,4.16a.6.6,0,0,0-.75.27L.59,8.58a.58.58,0,0,0,.15.77l2.6,2a11.52,11.52,0,0,0-.09,1.17,9.37,9.37,0,0,0,.09,1.18l-2.61,2a.59.59,0,0,0-.15.76l2.47,4.16a.63.63,0,0,0,.75.26l3.07-1.2A9.15,9.15,0,0,0,9,20.82L9.43,24a.59.59,0,0,0,.6.5H15a.59.59,0,0,0,.6-.5L16,20.82a10,10,0,0,0,2.09-1.18l3.07,1.2a.6.6,0,0,0,.75-.27l2.47-4.15a.59.59,0,0,0-.15-.77Zm-9.16,3a4.2,4.2,0,1,1,4.31-4.2h0A4.26,4.26,0,0,1,12.5,16.71Z"/></svg>