<?xml version="1.0" ?><!DOCTYPE svg  PUBLIC '-//W3C//DTD SVG 1.1//EN'  'http://www.w3.org/Graphics/SVG/1.1/DTD/svg11.dtd'><svg height="512px" style="enable-background:new 0 0 512 512;" version="1.1" viewBox="0 0 512 512" width="512px" xml:space="preserve" xmlns="http://www.w3.org/2000/svg" xmlns:xlink="http://www.w3.org/1999/xlink"><g id="B_-_184_x2C__contract_x2C__Business_x2C__document_x2C__legal_document_x2C__sign_contract"><g><path d="M44.742,446.356h40.175V61.626v-0.102v-0.101l0,0v-0.103l0,0v-0.102l0,0    l0.052-0.407l0,0c0.408-1.83,2.033-3.204,3.966-3.204h180.743l-0.711-17.139H44.742V446.356z M437.659,179.97v16.325h29.599    V179.97c0-4.068-1.677-7.781-4.32-10.477c-2.697-2.645-6.361-4.323-10.426-4.323c-4.124,0-7.834,1.678-10.479,4.323    C439.337,172.188,437.659,175.901,437.659,179.97z M467.258,204.381h-29.599v7.934h29.599V204.381z M467.258,220.349h-29.599    v212.377l14.8,32.039l14.799-32.039v-32.497h-22.686c-2.184,0-4.012-1.78-4.012-4.019c0-2.186,1.828-4.018,4.012-4.018h22.686    V220.349z M125.447,425.963c-2.237,0-4.065-1.779-4.065-4.019c0-2.186,1.829-4.017,4.065-4.017h158.826    c2.189,0,4.07,1.831,4.07,4.017c0,2.239-1.881,4.019-4.07,4.019H125.447z M125.447,401.653c-2.237,0-4.065-1.831-4.065-4.018    c0-2.238,1.829-4.019,4.065-4.019h158.826c2.189,0,4.07,1.78,4.07,4.019c0,2.187-1.881,4.018-4.07,4.018H125.447z     M125.447,377.344c-2.237,0-4.065-1.83-4.065-4.068c0-2.188,1.829-4.018,4.065-4.018h158.826c2.189,0,4.07,1.83,4.07,4.018    c0,2.238-1.881,4.068-4.07,4.068H125.447z M125.447,352.984c-2.237,0-4.065-1.78-4.065-4.019c0-2.237,1.829-4.017,4.065-4.017    h158.826c2.189,0,4.07,1.779,4.07,4.017c0,2.238-1.881,4.019-4.07,4.019H125.447z M125.447,328.675    c-2.237,0-4.065-1.832-4.065-4.019c0-2.236,1.829-4.068,4.065-4.068h158.826c2.189,0,4.07,1.832,4.07,4.068    c0,2.187-1.881,4.019-4.07,4.019H125.447z M373.121,260.983H130.584v25.48h242.537V260.983z M126.565,252.949h250.575    c2.236,0,4.019,1.78,4.019,4.018v33.565c0,2.188-1.782,4.019-4.019,4.019H126.565c-2.236,0-4.065-1.831-4.065-4.019v-33.565    C122.5,254.729,124.329,252.949,126.565,252.949z M199.24,124.333h-80.146v80.2h80.146V124.333z M115.022,116.298h88.236    c2.236,0,4.019,1.83,4.019,4.016v88.237c0,2.237-1.783,4.018-4.019,4.018h-88.236c-2.184,0-4.019-1.78-4.019-4.018v-88.237    C111.003,118.128,112.838,116.298,115.022,116.298z M325.06,151.286h79.95L325.06,71.34V151.286z M410.705,159.373h-89.664    c-2.236,0-4.012-1.831-4.012-4.069v-89.66c-74.714,0-149.368-0.05-224.075-0.05c0,135.329,0,270.606,0,405.937h317.75V159.373z" style="fill-rule:evenodd;clip-rule:evenodd;"/></g></g><g id="Layer_1"/></svg>