<svg id="Layer_1" data-name="Layer 1" xmlns="http://www.w3.org/2000/svg" viewBox="0 0 19 19"><defs><style>.cls-1{fill:#1e3363;}.cls-2{fill:none;}</style></defs><title>View</title><g id="Group_5497" data-name="Group 5497"><path id="Path_3824" data-name="Path 3824" class="cls-1" d="M9.5,3.87A11.26,11.26,0,0,0,.64,8.81a.71.71,0,0,0,0,.85A11.21,11.21,0,0,0,9.5,14.6a11.22,11.22,0,0,0,8.86-4.93.7.7,0,0,0,0-.85A11.24,11.24,0,0,0,9.5,3.87ZM9.75,13a3.79,3.79,0,1,1,3.53-4,4.17,4.17,0,0,1,0,.5A3.8,3.8,0,0,1,9.75,13Zm-.12-1.75a2,2,0,0,1-2.16-1.9,2,2,0,1,1,4.07-.26v.26a2,2,0,0,1-1.91,1.9Z"/><rect id="Rectangle_1950" 
data-name="Rectangle 1950" class="cls-2" x="0.5" y="0.5" width="18" height="18"/></g></svg>